<?xml version="1.0" encoding="us-ascii" standalone="no"?><svg xmlns="http://www.w3.org/2000/svg" xmlns:xlink="http://www.w3.org/1999/xlink" contentStyleType="text/css" height="585px" preserveAspectRatio="none" style="width:235px;height:585px;background:#FFFFFF;" version="1.1" viewBox="0 0 235 585" width="235px" zoomAndPan="magnify"><defs/><g><!--class App--><g id="elem_App"><rect codeLine="5" fill="#F1F1F1" height="66.6211" id="App" rx="2.5" ry="2.5" style="stroke:#181818;stroke-width:0.5;" width="173" x="32" y="7"/><ellipse cx="101.75" cy="23" fill="#ADD1B2" rx="11" ry="11" style="stroke:#181818;stroke-width:1.0;"/><path d="M104.5156,18.875 Q104.6719,18.6563 104.8594,18.5469 Q105.0469,18.4375 105.2656,18.4375 Q105.6406,18.4375 105.875,18.7031 Q106.1094,18.9531 106.1094,19.5625 L106.1094,21.0156 Q106.1094,21.625 105.875,21.8906 Q105.6406,22.1563 105.2656,22.1563 Q104.9219,22.1563 104.7188,21.9531 Q104.5156,21.7656 104.4063,21.25 Q104.3594,20.8906 104.1719,20.7031 Q103.8438,20.3281 103.2344,20.1094 Q102.625,19.8906 102,19.8906 Q101.2344,19.8906 100.5938,20.2188 Q99.9688,20.5469 99.4688,21.2969 Q98.9844,22.0469 98.9844,23.0781 L98.9844,24.1719 Q98.9844,25.4063 99.875,26.2344 Q100.7656,27.0469 102.3594,27.0469 Q103.2969,27.0469 103.9531,26.7969 Q104.3438,26.6406 104.7656,26.2031 Q105.0313,25.9375 105.1719,25.8594 Q105.3281,25.7813 105.5313,25.7813 Q105.8594,25.7813 106.1094,26.0469 Q106.375,26.2969 106.375,26.6406 Q106.375,26.9844 106.0313,27.3906 Q105.5313,27.9688 104.7344,28.2969 Q103.6563,28.75 102.3594,28.75 Q100.8438,28.75 99.6406,28.125 Q98.6563,27.625 97.9688,26.5625 Q97.2813,25.4844 97.2813,24.2031 L97.2813,23.0469 Q97.2813,21.7188 97.8906,20.5781 Q98.5156,19.4219 99.6094,18.8125 Q100.7031,18.1875 101.9375,18.1875 Q102.6719,18.1875 103.3125,18.3594 Q103.9688,18.5156 104.5156,18.875 Z " fill="#000000"/><text fill="#000000" font-family="sans-serif" font-size="14" lengthAdjust="spacing" textLength="25" x="122.25" y="28.7969">App</text><line style="stroke:#181818;stroke-width:0.5;" x1="33" x2="204" y1="39" y2="39"/><line style="stroke:#181818;stroke-width:0.5;" x1="33" x2="204" y1="47" y2="47"/><ellipse cx="43" cy="61.8105" fill="#84BE84" rx="3" ry="3" style="stroke:#038048;stroke-width:1.0;"/><text fill="#000000" font-family="sans-serif" font-size="14" lengthAdjust="spacing" text-decoration="underline" textLength="147" x="52" y="66.1074">main(args:String[]):void</text></g><!--class Yatzy--><g id="elem_Yatzy"><rect codeLine="9" fill="#F1F1F1" height="383.1797" id="Yatzy" rx="2.5" ry="2.5" style="stroke:#181818;stroke-width:0.5;" width="219" x="9" y="195"/><ellipse cx="97.25" cy="211" fill="#ADD1B2" rx="11" ry="11" style="stroke:#181818;stroke-width:1.0;"/><path d="M100.0156,206.875 Q100.1719,206.6563 100.3594,206.5469 Q100.5469,206.4375 100.7656,206.4375 Q101.1406,206.4375 101.375,206.7031 Q101.6094,206.9531 101.6094,207.5625 L101.6094,209.0156 Q101.6094,209.625 101.375,209.8906 Q101.1406,210.1563 100.7656,210.1563 Q100.4219,210.1563 100.2188,209.9531 Q100.0156,209.7656 99.9063,209.25 Q99.8594,208.8906 99.6719,208.7031 Q99.3438,208.3281 98.7344,208.1094 Q98.125,207.8906 97.5,207.8906 Q96.7344,207.8906 96.0938,208.2188 Q95.4688,208.5469 94.9688,209.2969 Q94.4844,210.0469 94.4844,211.0781 L94.4844,212.1719 Q94.4844,213.4063 95.375,214.2344 Q96.2656,215.0469 97.8594,215.0469 Q98.7969,215.0469 99.4531,214.7969 Q99.8438,214.6406 100.2656,214.2031 Q100.5313,213.9375 100.6719,213.8594 Q100.8281,213.7813 101.0313,213.7813 Q101.3594,213.7813 101.6094,214.0469 Q101.875,214.2969 101.875,214.6406 Q101.875,214.9844 101.5313,215.3906 Q101.0313,215.9688 100.2344,216.2969 Q99.1563,216.75 97.8594,216.75 Q96.3438,216.75 95.1406,216.125 Q94.1563,215.625 93.4688,214.5625 Q92.7813,213.4844 92.7813,212.2031 L92.7813,211.0469 Q92.7813,209.7188 93.3906,208.5781 Q94.0156,207.4219 95.1094,206.8125 Q96.2031,206.1875 97.4375,206.1875 Q98.1719,206.1875 98.8125,206.3594 Q99.4688,206.5156 100.0156,206.875 Z " fill="#000000"/><text fill="#000000" font-family="sans-serif" font-size="14" lengthAdjust="spacing" textLength="34" x="117.75" y="216.7969">Yatzy</text><line style="stroke:#181818;stroke-width:0.5;" x1="10" x2="227" y1="227" y2="227"/><polygon fill="none" points="20,236.8105,24,240.8105,20,244.8105,16,240.8105" style="stroke:#B38D22;stroke-width:1.0;"/><text fill="#000000" font-family="sans-serif" font-size="14" lengthAdjust="spacing" textLength="57" x="29" y="246.1074">dice: int[]</text><line style="stroke:#181818;stroke-width:1.0;" x1="10" x2="227" y1="253.6211" y2="253.6211"/><ellipse cx="20" cy="268.4316" fill="#84BE84" rx="3" ry="3" style="stroke:#038048;stroke-width:1.0;"/><text fill="#000000" font-family="sans-serif" font-size="14" lengthAdjust="spacing" textLength="44" x="29" y="272.7285">Yatzy()</text><ellipse cx="20" cy="287.0527" fill="#84BE84" rx="3" ry="3" style="stroke:#038048;stroke-width:1.0;"/><text fill="#000000" font-family="sans-serif" font-size="14" lengthAdjust="spacing" text-decoration="underline" textLength="136" x="29" y="291.3496">chance(int... dice): int</text><ellipse cx="20" cy="305.6738" fill="#84BE84" rx="3" ry="3" style="stroke:#038048;stroke-width:1.0;"/><text fill="#000000" font-family="sans-serif" font-size="14" lengthAdjust="spacing" text-decoration="underline" textLength="122" x="29" y="309.9707">yatzy(int... dice): int</text><ellipse cx="20" cy="324.2949" fill="#84BE84" rx="3" ry="3" style="stroke:#038048;stroke-width:1.0;"/><text fill="#000000" font-family="sans-serif" font-size="14" lengthAdjust="spacing" text-decoration="underline" textLength="121" x="29" y="328.5918">ones(int... dice): int</text><ellipse cx="20" cy="342.916" fill="#84BE84" rx="3" ry="3" style="stroke:#038048;stroke-width:1.0;"/><text fill="#000000" font-family="sans-serif" font-size="14" lengthAdjust="spacing" text-decoration="underline" textLength="118" x="29" y="347.2129">twos(int... dice): int</text><ellipse cx="20" cy="361.5371" fill="#84BE84" rx="3" ry="3" style="stroke:#038048;stroke-width:1.0;"/><text fill="#000000" font-family="sans-serif" font-size="14" lengthAdjust="spacing" text-decoration="underline" textLength="130" x="29" y="365.834">threes(int... dice): int</text><ellipse cx="20" cy="380.1582" fill="#84BE84" rx="3" ry="3" style="stroke:#038048;stroke-width:1.0;"/><text fill="#000000" font-family="sans-serif" font-size="14" lengthAdjust="spacing" textLength="61" x="29" y="384.4551">fours():int</text><ellipse cx="20" cy="398.7793" fill="#84BE84" rx="3" ry="3" style="stroke:#038048;stroke-width:1.0;"/><text fill="#000000" font-family="sans-serif" font-size="14" lengthAdjust="spacing" textLength="58" x="29" y="403.0762">fives():int</text><ellipse cx="20" cy="417.4004" fill="#84BE84" rx="3" ry="3" style="stroke:#038048;stroke-width:1.0;"/><text fill="#000000" font-family="sans-serif" font-size="14" lengthAdjust="spacing" textLength="64" x="29" y="421.6973">sixes(): int</text><ellipse cx="20" cy="436.0215" fill="#84BE84" rx="3" ry="3" style="stroke:#038048;stroke-width:1.0;"/><text fill="#000000" font-family="sans-serif" font-size="14" lengthAdjust="spacing" text-decoration="underline" textLength="157" x="29" y="440.3184">score_pair(int... dice): int</text><ellipse cx="20" cy="454.6426" fill="#84BE84" rx="3" ry="3" style="stroke:#038048;stroke-width:1.0;"/><text fill="#000000" font-family="sans-serif" font-size="14" lengthAdjust="spacing" text-decoration="underline" textLength="143" x="29" y="458.9395">two_pair(int... dice): int</text><ellipse cx="20" cy="473.2637" fill="#84BE84" rx="3" ry="3" style="stroke:#038048;stroke-width:1.0;"/><text fill="#000000" font-family="sans-serif" font-size="14" lengthAdjust="spacing" text-decoration="underline" textLength="185" x="29" y="477.5605">four_of_a_kind(int... dice): int</text><ellipse cx="20" cy="491.8848" fill="#84BE84" rx="3" ry="3" style="stroke:#038048;stroke-width:1.0;"/><text fill="#000000" font-family="sans-serif" font-size="14" lengthAdjust="spacing" text-decoration="underline" textLength="193" x="29" y="496.1816">three_of_a_kind(int... dice): int</text><ellipse cx="20" cy="510.5059" fill="#84BE84" rx="3" ry="3" style="stroke:#038048;stroke-width:1.0;"/><text fill="#000000" font-family="sans-serif" font-size="14" lengthAdjust="spacing" text-decoration="underline" textLength="171" x="29" y="514.8027">smallStraight(int... dice): int</text><ellipse cx="20" cy="529.127" fill="#84BE84" rx="3" ry="3" style="stroke:#038048;stroke-width:1.0;"/><text fill="#000000" font-family="sans-serif" font-size="14" lengthAdjust="spacing" text-decoration="underline" textLength="171" x="29" y="533.4238">largeStraight(int... dice): int</text><ellipse cx="20" cy="547.748" fill="#84BE84" rx="3" ry="3" style="stroke:#038048;stroke-width:1.0;"/><text fill="#000000" font-family="sans-serif" font-size="14" lengthAdjust="spacing" text-decoration="underline" textLength="148" x="29" y="552.0449">fullHouse(int... dice): int</text><text fill="#000000" font-family="sans-serif" font-size="14" lengthAdjust="spacing" textLength="4" x="29" y="570.666">&#160;</text></g><!--link App to Yatzy--><g id="link_App_Yatzy"><path codeLine="3" d="M118.5,74.17 C118.5,103.19 118.5,142.14 118.5,188.94 " fill="none" id="App-to-Yatzy" style="stroke:#181818;stroke-width:1.0;"/><polygon fill="#181818" points="118.5,194.94,122.5,185.94,118.5,189.94,114.5,185.94,118.5,194.94" style="stroke:#181818;stroke-width:1.0;"/></g><!--SRC=[bP91IyGm58Jl-HK13xOiQUyv2DwyUrgMfJpIj7sO9ZKlNLrB_xinkg2YDkOICdmpJ62kXn0cadKz6R1X7asbt5YJVforLLgq2Bs7aR7RQU92Y1k-X_1oPamP8E9HNTX20GAgTJS2sW9yJ_8-UBJzuLZAayEMhHS-cHV6uxdYBIejETfmE2P5Y7JjtgcY_7XTujK0iL4H-QggahbCxc_OEPctA6SrRKBXoML0WzT_P7LkzbIKyfE29_rL8NnEoW_ff9pNpGJeSzhcWM-L6jSrq3oWRVC- -0-UHZ0c3W2m7y8cRU9UT3RTpSRSkPb-cm7Zwoi0]--></g></svg>